<svg width="100" height="99" viewBox="0 0 100 99" fill="none" xmlns="http://www.w3.org/2000/svg">
<g filter="url(#filter0_d_1550_39378)">
<path fill-rule="evenodd" clip-rule="evenodd" d="M0.146484 45.5C0.146484 20.371 20.5175 0 45.6465 0C70.7754 0 91.1465 20.371 91.1465 45.5C91.1465 70.629 70.7754 91 45.6465 91C20.5175 91 0.146484 70.629 0.146484 45.5ZM52.3924 35.395H65.2448V31.7128H52.3924V35.395ZM64.112 38.486C62.5654 37.802 60.8275 37.4585 58.8957 37.4585C55.6454 37.4585 53.0059 38.4748 50.9656 40.4932C48.931 42.5173 47.9123 45.4254 47.9123 49.2174C47.9123 53.26 49.0366 56.1821 51.2995 57.9754C53.5509 59.7714 56.1562 60.6667 59.1097 60.6667C62.6852 60.6667 65.4674 59.6025 67.4535 57.4771C68.7262 56.1371 69.4453 54.8168 69.6022 53.5218H63.6811C63.3387 54.1637 62.9392 54.6647 62.4855 55.0279C61.6608 55.6951 60.585 56.0301 59.2695 56.0301C58.0196 56.0301 56.9552 55.7542 56.0706 55.2053C54.6096 54.3241 53.8448 52.7842 53.7478 50.5912H69.9076C69.9333 48.7022 69.8705 47.2496 69.7135 46.2474C69.4453 44.533 68.8575 43.0241 67.9415 41.7235C66.937 40.2483 65.6615 39.1673 64.112 38.486ZM43.6462 33.4863C42.1195 31.4369 39.5314 30.3868 35.8731 30.3333H21.3798V59.9207H34.8943C36.4181 59.9207 37.8278 59.7912 39.1319 59.5237C40.4359 59.2535 41.5631 58.7608 42.519 58.0373C43.3694 57.4067 44.0771 56.6297 44.6421 55.7092C45.5353 54.3185 45.9804 52.7448 45.9804 50.991C45.9804 49.2906 45.5895 47.8436 44.8133 46.6556C44.0286 45.4648 42.8757 44.5949 41.3462 44.0432C42.3535 43.5364 43.1154 42.9734 43.6348 42.3597C44.5622 41.2618 45.0216 39.8063 45.0216 38.0018C45.0216 36.248 44.5622 34.7447 43.6462 33.4863Z" fill="#E9E2DC"/>
<path fill-rule="evenodd" clip-rule="evenodd" d="M27.3574 35.4707H33.8864C35.3217 35.4707 36.5031 35.6255 37.4334 35.9324C38.5063 36.3772 39.0428 37.2865 39.0428 38.6687C39.0428 39.9074 38.6347 40.7745 37.8243 41.2643C37.0082 41.7541 35.9495 41.9991 34.6511 41.9991H27.3574V35.4707ZM55.4365 43.4292C56.2555 42.5959 57.414 42.1792 58.8979 42.1792C60.2676 42.1792 61.4119 42.5705 62.3422 43.356C63.261 44.147 63.7804 45.2956 63.8859 46.8158H53.8899C54.1011 45.3913 54.6175 44.2624 55.4365 43.4292ZM27.3574 46.8946H34.7425C36.0266 46.9059 37.0282 47.0748 37.7416 47.3957C39.0171 47.9728 39.6506 49.0285 39.6506 50.5712C39.6506 52.3898 38.9943 53.6172 37.6788 54.2647C36.9568 54.611 35.941 54.7855 34.6397 54.7855H27.3574V46.8946Z" fill="#E9E2DC"/>
</g>
<defs>
<filter id="filter0_d_1550_39378" x="0.146484" y="0" width="99" height="99" filterUnits="userSpaceOnUse" color-interpolation-filters="sRGB">
<feFlood flood-opacity="0" result="BackgroundImageFix"/>
<feColorMatrix in="SourceAlpha" type="matrix" values="0 0 0 0 0 0 0 0 0 0 0 0 0 0 0 0 0 0 127 0" result="hardAlpha"/>
<feOffset dx="4" dy="4"/>
<feGaussianBlur stdDeviation="2"/>
<feComposite in2="hardAlpha" operator="out"/>
<feColorMatrix type="matrix" values="0 0 0 0 0 0 0 0 0 0 0 0 0 0 0 0 0 0 0.25 0"/>
<feBlend mode="normal" in2="BackgroundImageFix" result="effect1_dropShadow_1550_39378"/>
<feBlend mode="normal" in="SourceGraphic" in2="effect1_dropShadow_1550_39378" result="shape"/>
</filter>
</defs>
</svg>
