<svg width="99" height="99" viewBox="0 0 99 99" fill="none" xmlns="http://www.w3.org/2000/svg">
<g filter="url(#filter0_d_1262_36627)">
<path fill-rule="evenodd" clip-rule="evenodd" d="M45.5828 0.34082C20.5036 0.34082 0.166992 21.0204 0.166992 46.5319C0.166992 66.9407 13.18 84.2554 31.2251 90.3633C33.4948 90.7909 34.3281 89.3613 34.3281 88.1412C34.3281 87.0397 34.286 83.401 34.2664 79.5412C21.6317 82.3355 18.9656 74.0912 18.9656 74.0912C16.8997 68.7521 13.923 67.3324 13.923 67.3324C9.80246 64.4655 14.2336 64.5244 14.2336 64.5244C18.7942 64.8494 21.1955 69.2844 21.1955 69.2844C25.2461 76.3462 31.82 74.3046 34.4116 73.1243C34.8192 70.1396 35.9962 68.1003 37.295 66.9476C27.2075 65.7796 16.6034 61.8188 16.6034 44.1194C16.6034 39.0763 18.3775 34.9557 21.2828 31.7208C20.8112 30.5566 19.2567 25.8593 21.7227 19.4967C21.7227 19.4967 25.5364 18.2552 34.2153 24.2315C37.838 23.2081 41.7232 22.6948 45.5828 22.6772C49.4424 22.6948 53.3305 23.2081 56.96 24.2315C65.6283 18.2552 69.4368 19.4967 69.4368 19.4967C71.9088 25.8593 70.3536 30.5566 69.882 31.7208C72.794 34.9557 74.5561 39.0763 74.5561 44.1194C74.5561 61.8609 63.9317 65.7673 53.8186 66.9109C55.4476 68.3444 56.8991 71.1554 56.8991 75.465C56.8991 81.6448 56.8465 86.619 56.8465 88.1412C56.8465 89.3704 57.664 90.8108 59.966 90.3572C78.0013 84.2424 90.9978 66.9338 90.9978 46.5319C90.9978 21.0204 70.6642 0.34082 45.5828 0.34082Z" fill="white"/>
<path fill-rule="evenodd" clip-rule="evenodd" d="M17.3682 66.6615C17.2682 66.8918 16.9132 66.9599 16.5899 66.8023C16.2605 66.6516 16.0754 66.3387 16.1822 66.1085C16.28 65.8721 16.6357 65.8071 16.9644 65.9639C17.2945 66.1154 17.4826 66.4313 17.3682 66.6615Z" fill="white"/>
<path fill-rule="evenodd" clip-rule="evenodd" d="M19.2078 68.7482C18.9912 68.9525 18.5678 68.8576 18.2805 68.5348C17.9834 68.2128 17.9278 67.7821 18.1474 67.5748C18.3708 67.3706 18.7814 67.4662 19.0792 67.7883C19.3763 68.1141 19.4342 68.5417 19.2078 68.7482Z" fill="white"/>
<path fill-rule="evenodd" clip-rule="evenodd" d="M20.9985 71.4086C20.7202 71.6052 20.2652 71.4209 19.9839 71.0101C19.7057 70.5993 19.7057 70.1067 19.99 69.9094C20.272 69.712 20.7202 69.8895 21.0052 70.2972C21.2828 70.7141 21.2828 71.2074 20.9985 71.4086Z" fill="white"/>
<path fill-rule="evenodd" clip-rule="evenodd" d="M23.4517 73.9787C23.2028 74.2579 22.6726 74.183 22.2845 73.802C21.8874 73.4295 21.7769 72.901 22.0265 72.6218C22.2785 72.3418 22.8117 72.4206 23.2028 72.7985C23.5969 73.1702 23.7172 73.7026 23.4517 73.9787Z" fill="white"/>
<path fill-rule="evenodd" clip-rule="evenodd" d="M26.836 75.4711C26.7262 75.8329 26.2156 75.9974 25.7011 75.8436C25.1875 75.6853 24.8513 75.2615 24.9551 74.8959C25.0619 74.5318 25.5748 74.3604 26.093 74.5249C26.6059 74.6825 26.9428 75.1032 26.836 75.4711Z" fill="white"/>
<path fill-rule="evenodd" clip-rule="evenodd" d="M30.5527 75.748C30.5655 76.1289 30.1293 76.4448 29.5893 76.451C29.0463 76.464 28.6071 76.1557 28.6011 75.7809C28.6011 75.3961 29.0275 75.0833 29.5705 75.0741C30.1105 75.0634 30.5527 75.3694 30.5527 75.748Z" fill="white"/>
<path fill-rule="evenodd" clip-rule="evenodd" d="M34.0115 75.1491C34.0762 75.5208 33.7009 75.9025 33.1646 76.0035C32.6374 76.1022 32.1494 75.8727 32.0824 75.504C32.017 75.1231 32.399 74.7414 32.9255 74.6427C33.4625 74.5478 33.943 74.7712 34.0115 75.1491Z" fill="white"/>
</g>
<defs>
<filter id="filter0_d_1262_36627" x="0" y="0" width="99" height="99" filterUnits="userSpaceOnUse" color-interpolation-filters="sRGB">
<feFlood flood-opacity="0" result="BackgroundImageFix"/>
<feColorMatrix in="SourceAlpha" type="matrix" values="0 0 0 0 0 0 0 0 0 0 0 0 0 0 0 0 0 0 127 0" result="hardAlpha"/>
<feOffset dx="4" dy="4"/>
<feGaussianBlur stdDeviation="2"/>
<feComposite in2="hardAlpha" operator="out"/>
<feColorMatrix type="matrix" values="0 0 0 0 0 0 0 0 0 0 0 0 0 0 0 0 0 0 0.25 0"/>
<feBlend mode="normal" in2="BackgroundImageFix" result="effect1_dropShadow_1262_36627"/>
<feBlend mode="normal" in="SourceGraphic" in2="effect1_dropShadow_1262_36627" result="shape"/>
</filter>
</defs>
</svg>
