<svg width="99" height="99" viewBox="0 0 99 99" fill="none" xmlns="http://www.w3.org/2000/svg">
<g filter="url(#filter0_d_1550_39379)">
<path fill-rule="evenodd" clip-rule="evenodd" d="M45.5818 0.34082C20.5026 0.34082 0.166016 21.0204 0.166016 46.5319C0.166016 66.9407 13.179 84.2554 31.2241 90.3633C33.4938 90.7909 34.3271 89.3613 34.3271 88.1412C34.3271 87.0397 34.285 83.401 34.2654 79.5412C21.6307 82.3355 18.9647 74.0912 18.9647 74.0912C16.8987 68.7521 13.9221 67.3324 13.9221 67.3324C9.80149 64.4655 14.2327 64.5244 14.2327 64.5244C18.7932 64.8494 21.1945 69.2844 21.1945 69.2844C25.2452 76.3462 31.819 74.3046 34.4106 73.1243C34.8182 70.1396 35.9952 68.1003 37.294 66.9476C27.2066 65.7796 16.6024 61.8188 16.6024 44.1194C16.6024 39.0763 18.3765 34.9557 21.2818 31.7208C20.8102 30.5566 19.2557 25.8593 21.7217 19.4967C21.7217 19.4967 25.5355 18.2552 34.2143 24.2315C37.837 23.2081 41.7222 22.6948 45.5818 22.6772C49.4414 22.6948 53.3296 23.2081 56.959 24.2315C65.6274 18.2552 69.4358 19.4967 69.4358 19.4967C71.9079 25.8593 70.3526 30.5566 69.881 31.7208C72.793 34.9557 74.5551 39.0763 74.5551 44.1194C74.5551 61.8609 63.9307 65.7673 53.8177 66.9109C55.4466 68.3444 56.8981 71.1554 56.8981 75.465C56.8981 81.6448 56.8455 86.619 56.8455 88.1412C56.8455 89.3704 57.663 90.8108 59.965 90.3572C78.0003 84.2424 90.9968 66.9338 90.9968 46.5319C90.9968 21.0204 70.6632 0.34082 45.5818 0.34082Z" fill="#E9E2DC"/>
<path fill-rule="evenodd" clip-rule="evenodd" d="M17.3673 66.6615C17.2672 66.8918 16.9123 66.9599 16.5889 66.8023C16.2595 66.6516 16.0745 66.3387 16.1813 66.1085C16.279 65.8721 16.6348 65.8071 16.9634 65.9639C17.2936 66.1154 17.4816 66.4313 17.3673 66.6615Z" fill="#E9E2DC"/>
<path fill-rule="evenodd" clip-rule="evenodd" d="M19.2068 68.7482C18.9902 68.9525 18.5668 68.8576 18.2795 68.5348C17.9825 68.2128 17.9268 67.7821 18.1464 67.5748C18.3698 67.3706 18.7804 67.4662 19.0782 67.7883C19.3753 68.1141 19.4332 68.5417 19.2068 68.7482Z" fill="#E9E2DC"/>
<path fill-rule="evenodd" clip-rule="evenodd" d="M20.9975 71.4086C20.7192 71.6052 20.2642 71.4209 19.983 71.0101C19.7047 70.5993 19.7047 70.1067 19.989 69.9094C20.271 69.712 20.7192 69.8895 21.0043 70.2972C21.2818 70.7141 21.2818 71.2074 20.9975 71.4086Z" fill="#E9E2DC"/>
<path fill-rule="evenodd" clip-rule="evenodd" d="M23.4507 73.9787C23.2018 74.2579 22.6716 74.183 22.2835 73.802C21.8864 73.4295 21.7759 72.901 22.0256 72.6218C22.2775 72.3418 22.8107 72.4206 23.2018 72.7985C23.5959 73.1702 23.7162 73.7026 23.4507 73.9787Z" fill="#E9E2DC"/>
<path fill-rule="evenodd" clip-rule="evenodd" d="M26.835 75.4711C26.7252 75.8329 26.2146 75.9974 25.7002 75.8436C25.1865 75.6853 24.8503 75.2615 24.9541 74.8959C25.0609 74.5318 25.5738 74.3604 26.092 74.5249C26.6049 74.6825 26.9418 75.1032 26.835 75.4711Z" fill="#E9E2DC"/>
<path fill-rule="evenodd" clip-rule="evenodd" d="M30.5517 75.748C30.5645 76.1289 30.1283 76.4448 29.5883 76.451C29.0454 76.464 28.6061 76.1557 28.6001 75.7809C28.6001 75.3961 29.0266 75.0833 29.5695 75.0741C30.1095 75.0634 30.5517 75.3694 30.5517 75.748Z" fill="#E9E2DC"/>
<path fill-rule="evenodd" clip-rule="evenodd" d="M34.0105 75.1491C34.0752 75.5208 33.6999 75.9025 33.1637 76.0035C32.6365 76.1022 32.1484 75.8727 32.0814 75.504C32.016 75.1231 32.3981 74.7414 32.9245 74.6427C33.4615 74.5478 33.9421 74.7712 34.0105 75.1491Z" fill="#E9E2DC"/>
</g>
<defs>
<filter id="filter0_d_1550_39379" x="0" y="0" width="99" height="99" filterUnits="userSpaceOnUse" color-interpolation-filters="sRGB">
<feFlood flood-opacity="0" result="BackgroundImageFix"/>
<feColorMatrix in="SourceAlpha" type="matrix" values="0 0 0 0 0 0 0 0 0 0 0 0 0 0 0 0 0 0 127 0" result="hardAlpha"/>
<feOffset dx="4" dy="4"/>
<feGaussianBlur stdDeviation="2"/>
<feComposite in2="hardAlpha" operator="out"/>
<feColorMatrix type="matrix" values="0 0 0 0 0 0 0 0 0 0 0 0 0 0 0 0 0 0 0.25 0"/>
<feBlend mode="normal" in2="BackgroundImageFix" result="effect1_dropShadow_1550_39379"/>
<feBlend mode="normal" in="SourceGraphic" in2="effect1_dropShadow_1550_39379" result="shape"/>
</filter>
</defs>
</svg>
