<svg width="98" height="99" viewBox="0 0 98 99" fill="none" xmlns="http://www.w3.org/2000/svg">
<g filter="url(#filter0_d_1550_39380)">
<path fill-rule="evenodd" clip-rule="evenodd" d="M15.1419 0C6.77925 0 0 6.79035 0 15.1667V75.8333C0 84.2097 6.77926 91 15.1419 91H73.9623C82.3249 91 89.1042 84.2097 89.1042 75.8333V15.1667C89.1042 6.79035 82.3249 0 73.9623 0H15.1419ZM12.229 20.3567C12.229 24.9321 15.6923 28.2758 19.9644 28.2758C24.2371 28.2758 27.7004 24.9321 27.7004 20.3567C27.7004 15.7819 24.2371 12.4345 19.9644 12.4345C15.6923 12.4345 12.229 15.7819 12.229 20.3567ZM62.7213 78.2079H76.1389V51.1026C76.1389 37.7159 68.0483 33.1501 60.5614 33.1501C53.6385 33.1501 48.9357 37.7561 47.6373 40.4542V34.3819H34.7336V78.2079H48.1511V54.4469C48.1511 48.1114 52.0538 45.0303 56.0352 45.0303C59.801 45.0303 62.7213 47.2084 62.7213 54.271V78.2079ZM26.6728 34.3481V78.1741H13.2559V34.3481H26.6728Z" fill="#E9E2DC"/>
</g>
<defs>
<filter id="filter0_d_1550_39380" x="0" y="0" width="99" height="99" filterUnits="userSpaceOnUse" color-interpolation-filters="sRGB">
<feFlood flood-opacity="0" result="BackgroundImageFix"/>
<feColorMatrix in="SourceAlpha" type="matrix" values="0 0 0 0 0 0 0 0 0 0 0 0 0 0 0 0 0 0 127 0" result="hardAlpha"/>
<feOffset dx="4" dy="4"/>
<feGaussianBlur stdDeviation="2"/>
<feComposite in2="hardAlpha" operator="out"/>
<feColorMatrix type="matrix" values="0 0 0 0 0 0 0 0 0 0 0 0 0 0 0 0 0 0 0.25 0"/>
<feBlend mode="normal" in2="BackgroundImageFix" result="effect1_dropShadow_1550_39380"/>
<feBlend mode="normal" in="SourceGraphic" in2="effect1_dropShadow_1550_39380" result="shape"/>
</filter>
</defs>
</svg>
