<svg width="1440" height="1024" viewBox="0 0 1440 1024" fill="none" xmlns="http://www.w3.org/2000/svg">
<g clip-path="url(#clip0_1356_12590)">
<rect width="1440" height="1024" fill="url(#paint0_linear_1356_12590)" fill-opacity="0.8"/>
<g clip-path="url(#clip1_1356_12590)">
<rect width="1440" height="1024" fill="url(#paint1_linear_1356_12590)" fill-opacity="0.8"/>
<rect width="1440" height="1024" fill="url(#paint2_linear_1356_12590)"/>
<rect width="400" height="400" transform="translate(-9 650.968) rotate(-45.0254)" fill="url(#paint3_linear_1356_12590)" fill-opacity="0.8"/>
<rect width="400" height="400" transform="translate(274 933.968) rotate(-45.0254)" fill="url(#paint4_linear_1356_12590)" fill-opacity="0.8"/>
<rect width="400" height="400" transform="translate(133 226.968) rotate(-45.0254)" fill="url(#paint5_linear_1356_12590)" fill-opacity="0.8"/>
<rect width="400" height="400" transform="translate(416 509.968) rotate(-45.0254)" fill="url(#paint6_linear_1356_12590)" fill-opacity="0.8"/>
<rect width="400" height="400" transform="translate(699 792.968) rotate(-45.0254)" fill="url(#paint7_linear_1356_12590)" fill-opacity="0.8"/>
<rect width="400" height="400" transform="translate(982 1075.97) rotate(-45.0254)" fill="url(#paint8_linear_1356_12590)" fill-opacity="0.8"/>
<rect width="400" height="400" transform="translate(308 -164.032) rotate(-45.0254)" fill="url(#paint9_linear_1356_12590)" fill-opacity="0.8"/>
<rect width="400" height="400" transform="translate(591 118.968) rotate(-45.0254)" fill="url(#paint10_linear_1356_12590)" fill-opacity="0.8"/>
<rect width="400" height="400" transform="translate(874 401.968) rotate(-45.0254)" fill="url(#paint11_linear_1356_12590)" fill-opacity="0.8"/>
<rect width="400" height="400" transform="translate(1157 684.968) rotate(-45.0254)" fill="url(#paint12_linear_1356_12590)" fill-opacity="0.8"/>
</g>
<rect width="400" height="400" transform="translate(-292 367.968) rotate(-45.0254)" fill="url(#paint13_linear_1356_12590)" fill-opacity="0.8"/>
<rect width="400" height="400" transform="translate(557 1216.97) rotate(-45.0254)" fill="url(#paint14_linear_1356_12590)" fill-opacity="0.8"/>
<g clip-path="url(#clip2_1356_12590)">
<rect width="400" height="400" transform="translate(-201 1023.97) rotate(-45.0254)" fill="url(#paint15_linear_1356_12590)" fill-opacity="0.8"/>
<rect x="291.633" y="530.896" width="1446" height="1186" transform="rotate(-45.0254 291.633 530.896)" fill="url(#paint16_linear_1356_12590)"/>
</g>
<g clip-path="url(#clip3_1356_12590)">
<rect width="400" height="400" transform="translate(-484 740.968) rotate(-45.0254)" fill="url(#paint17_linear_1356_12590)" fill-opacity="0.8"/>
<rect x="8.63281" y="247.896" width="1446" height="1186" transform="rotate(-45.0254 8.63281 247.896)" fill="url(#paint18_linear_1356_12590)"/>
</g>
<rect width="400" height="400" transform="translate(970 -67.0317) rotate(-45.0254)" fill="url(#paint19_linear_1356_12590)" fill-opacity="0.8"/>
<rect width="400" height="400" transform="translate(1253 215.968) rotate(-45.0254)" fill="url(#paint20_linear_1356_12590)" fill-opacity="0.8"/>
</g>
<defs>
<linearGradient id="paint0_linear_1356_12590" x1="720" y1="627.5" x2="720" y2="1024" gradientUnits="userSpaceOnUse">
<stop stop-color="#A93F8B"/>
<stop offset="1" stop-color="#FFC466"/>
</linearGradient>
<linearGradient id="paint1_linear_1356_12590" x1="720" y1="0" x2="720" y2="1024" gradientUnits="userSpaceOnUse">
<stop stop-color="#A93F8B"/>
<stop offset="1" stop-color="#FFC466"/>
</linearGradient>
<linearGradient id="paint2_linear_1356_12590" x1="720" y1="0" x2="720" y2="1024" gradientUnits="userSpaceOnUse">
<stop stop-color="#FABF6E"/>
<stop offset="1" stop-color="#AE498F"/>
</linearGradient>
<linearGradient id="paint3_linear_1356_12590" x1="200" y1="0" x2="200" y2="400" gradientUnits="userSpaceOnUse">
<stop stop-color="#A93F8B"/>
<stop offset="1" stop-color="#FFC466"/>
</linearGradient>
<linearGradient id="paint4_linear_1356_12590" x1="200" y1="0" x2="200" y2="400" gradientUnits="userSpaceOnUse">
<stop stop-color="#A93F8B"/>
<stop offset="1" stop-color="#FFC466"/>
</linearGradient>
<linearGradient id="paint5_linear_1356_12590" x1="200" y1="0" x2="200" y2="400" gradientUnits="userSpaceOnUse">
<stop stop-color="#A93F8B"/>
<stop offset="1" stop-color="#FFC466"/>
</linearGradient>
<linearGradient id="paint6_linear_1356_12590" x1="200" y1="0" x2="200" y2="400" gradientUnits="userSpaceOnUse">
<stop stop-color="#A93F8B"/>
<stop offset="1" stop-color="#FFC466"/>
</linearGradient>
<linearGradient id="paint7_linear_1356_12590" x1="200" y1="0" x2="200" y2="400" gradientUnits="userSpaceOnUse">
<stop stop-color="#A93F8B"/>
<stop offset="1" stop-color="#FFC466"/>
</linearGradient>
<linearGradient id="paint8_linear_1356_12590" x1="200" y1="0" x2="200" y2="400" gradientUnits="userSpaceOnUse">
<stop stop-color="#A93F8B"/>
<stop offset="1" stop-color="#FFC466"/>
</linearGradient>
<linearGradient id="paint9_linear_1356_12590" x1="200" y1="0" x2="200" y2="400" gradientUnits="userSpaceOnUse">
<stop stop-color="#A93F8B"/>
<stop offset="1" stop-color="#FFC466"/>
</linearGradient>
<linearGradient id="paint10_linear_1356_12590" x1="200" y1="0" x2="200" y2="400" gradientUnits="userSpaceOnUse">
<stop stop-color="#A93F8B"/>
<stop offset="1" stop-color="#FFC466"/>
</linearGradient>
<linearGradient id="paint11_linear_1356_12590" x1="200" y1="0" x2="200" y2="400" gradientUnits="userSpaceOnUse">
<stop stop-color="#A93F8B"/>
<stop offset="1" stop-color="#FFC466"/>
</linearGradient>
<linearGradient id="paint12_linear_1356_12590" x1="200" y1="0" x2="200" y2="400" gradientUnits="userSpaceOnUse">
<stop stop-color="#A93F8B"/>
<stop offset="1" stop-color="#FFC466"/>
</linearGradient>
<linearGradient id="paint13_linear_1356_12590" x1="200" y1="0" x2="200" y2="400" gradientUnits="userSpaceOnUse">
<stop stop-color="#A93F8B"/>
<stop offset="1" stop-color="#FFC466"/>
</linearGradient>
<linearGradient id="paint14_linear_1356_12590" x1="200" y1="0" x2="200" y2="400" gradientUnits="userSpaceOnUse">
<stop stop-color="#A93F8B"/>
<stop offset="1" stop-color="#FFC466"/>
</linearGradient>
<linearGradient id="paint15_linear_1356_12590" x1="200" y1="0" x2="200" y2="400" gradientUnits="userSpaceOnUse">
<stop stop-color="#A93F8B"/>
<stop offset="1" stop-color="#FFC466"/>
</linearGradient>
<linearGradient id="paint16_linear_1356_12590" x1="1014.63" y1="530.896" x2="1014.63" y2="1716.9" gradientUnits="userSpaceOnUse">
<stop stop-color="#FABF6E"/>
<stop offset="1" stop-color="#AE498F"/>
</linearGradient>
<linearGradient id="paint17_linear_1356_12590" x1="200" y1="0" x2="200" y2="400" gradientUnits="userSpaceOnUse">
<stop stop-color="#A93F8B"/>
<stop offset="1" stop-color="#FFC466"/>
</linearGradient>
<linearGradient id="paint18_linear_1356_12590" x1="731.633" y1="247.896" x2="731.633" y2="1433.9" gradientUnits="userSpaceOnUse">
<stop stop-color="#FABF6E"/>
<stop offset="1" stop-color="#AE498F"/>
</linearGradient>
<linearGradient id="paint19_linear_1356_12590" x1="200" y1="0" x2="200" y2="400" gradientUnits="userSpaceOnUse">
<stop stop-color="#A93F8B"/>
<stop offset="1" stop-color="#FFC466"/>
</linearGradient>
<linearGradient id="paint20_linear_1356_12590" x1="200" y1="0" x2="200" y2="400" gradientUnits="userSpaceOnUse">
<stop stop-color="#A93F8B"/>
<stop offset="1" stop-color="#FFC466"/>
</linearGradient>
<clipPath id="clip0_1356_12590">
<rect width="1440" height="1024" fill="white"/>
</clipPath>
<clipPath id="clip1_1356_12590">
<rect width="1440" height="1024" fill="white"/>
</clipPath>
<clipPath id="clip2_1356_12590">
<rect width="400" height="400" fill="white" transform="translate(-201 1023.97) rotate(-45.0254)"/>
</clipPath>
<clipPath id="clip3_1356_12590">
<rect width="400" height="400" fill="white" transform="translate(-484 740.968) rotate(-45.0254)"/>
</clipPath>
</defs>
</svg>
