<svg width="100" height="99" viewBox="0 0 100 99" fill="none" xmlns="http://www.w3.org/2000/svg">
<g filter="url(#filter0_d_1262_36626)">
<path fill-rule="evenodd" clip-rule="evenodd" d="M0.146484 45.5C0.146484 20.371 20.5175 0 45.6465 0C70.7754 0 91.1465 20.371 91.1465 45.5C91.1465 70.629 70.7754 91 45.6465 91C20.5175 91 0.146484 70.629 0.146484 45.5ZM52.3924 35.395H65.2448V31.7128H52.3924V35.395ZM64.112 38.486C62.5654 37.802 60.8275 37.4585 58.8957 37.4585C55.6454 37.4585 53.0059 38.4748 50.9656 40.4932C48.931 42.5173 47.9123 45.4254 47.9123 49.2174C47.9123 53.26 49.0366 56.1821 51.2995 57.9754C53.5509 59.7714 56.1562 60.6667 59.1097 60.6667C62.6852 60.6667 65.4674 59.6025 67.4535 57.4771C68.7262 56.1371 69.4453 54.8168 69.6022 53.5218H63.6811C63.3387 54.1637 62.9392 54.6647 62.4855 55.0279C61.6608 55.6951 60.585 56.0301 59.2695 56.0301C58.0196 56.0301 56.9552 55.7542 56.0706 55.2053C54.6096 54.3241 53.8448 52.7842 53.7478 50.5912H69.9076C69.9333 48.7022 69.8705 47.2496 69.7135 46.2474C69.4453 44.533 68.8575 43.0241 67.9415 41.7235C66.937 40.2483 65.6615 39.1673 64.112 38.486ZM43.6462 33.4863C42.1195 31.4369 39.5314 30.3868 35.8731 30.3333H21.3798V59.9207H34.8943C36.4181 59.9207 37.8278 59.7912 39.1319 59.5237C40.4359 59.2535 41.5631 58.7608 42.519 58.0373C43.3694 57.4067 44.0771 56.6297 44.6421 55.7092C45.5353 54.3185 45.9804 52.7448 45.9804 50.991C45.9804 49.2906 45.5895 47.8436 44.8133 46.6556C44.0286 45.4648 42.8757 44.5949 41.3462 44.0432C42.3535 43.5364 43.1154 42.9734 43.6348 42.3597C44.5622 41.2618 45.0216 39.8063 45.0216 38.0018C45.0216 36.248 44.5622 34.7447 43.6462 33.4863Z" fill="white"/>
<path fill-rule="evenodd" clip-rule="evenodd" d="M27.3584 35.4707H33.8874C35.3227 35.4707 36.5041 35.6255 37.4343 35.9324C38.5073 36.3772 39.0438 37.2865 39.0438 38.6687C39.0438 39.9074 38.6357 40.7745 37.8253 41.2643C37.0092 41.7541 35.9505 41.9991 34.6521 41.9991H27.3584V35.4707ZM55.4375 43.4292C56.2565 42.5959 57.415 42.1792 58.8989 42.1792C60.2686 42.1792 61.4129 42.5705 62.3431 43.356C63.262 44.147 63.7813 45.2956 63.8869 46.8158H53.8909C54.102 45.3913 54.6185 44.2624 55.4375 43.4292ZM27.3584 46.8946H34.7434C36.0275 46.9059 37.0291 47.0748 37.7425 47.3957C39.0181 47.9728 39.6516 49.0285 39.6516 50.5712C39.6516 52.3898 38.9952 53.6172 37.6797 54.2647C36.9578 54.611 35.9419 54.7855 34.6407 54.7855H27.3584V46.8946Z" fill="white"/>
</g>
<defs>
<filter id="filter0_d_1262_36626" x="0.146484" y="0" width="99" height="99" filterUnits="userSpaceOnUse" color-interpolation-filters="sRGB">
<feFlood flood-opacity="0" result="BackgroundImageFix"/>
<feColorMatrix in="SourceAlpha" type="matrix" values="0 0 0 0 0 0 0 0 0 0 0 0 0 0 0 0 0 0 127 0" result="hardAlpha"/>
<feOffset dx="4" dy="4"/>
<feGaussianBlur stdDeviation="2"/>
<feComposite in2="hardAlpha" operator="out"/>
<feColorMatrix type="matrix" values="0 0 0 0 0 0 0 0 0 0 0 0 0 0 0 0 0 0 0.25 0"/>
<feBlend mode="normal" in2="BackgroundImageFix" result="effect1_dropShadow_1262_36626"/>
<feBlend mode="normal" in="SourceGraphic" in2="effect1_dropShadow_1262_36626" result="shape"/>
</filter>
</defs>
</svg>
